<?xml version="1.0" encoding="UTF-8"?>
<svg id="_圖層_2" data-name="圖層 2" xmlns="http://www.w3.org/2000/svg" viewBox="0 0 983.14 80.93">
  <defs>
    <style>
      .cls-1 {
        stroke-width: 0px;
      }
    </style>
  </defs>
  <g id="_圖層_1-2" data-name="圖層 1">
    <g>
      <path class="cls-1" d="m17.25,74.83c-.68,3.52-5.07,4.81-8.99,5.24l-1.24-2.75c-.59-1.03-2.47-1.98-5.83-2.92-.84-.26-1.26-.6-1.18-1.03.1-.52.69-1.03,1.92-.77l9.31,1.72c.69,0,1.23-.26,1.46-.94l4.98-25.69-7.36,2.92c-.33.17-.53.69-.69,1.55-.28,1.46-1.25,1.89-1.84,1.89-.69,0-1.28-.52-1.65-1.63l-2.05-5.16,5.09-.86,9.29-2.75,4.23-21.82h-14.08l-.27-2.66h14.86L26.83.43l5.46.77c1.44.17,2.12.77,1.97,1.55-.17.86-.87,1.46-1.89,1.63-1,.09-1.59.6-1.71,1.2l-2.63,13.57h4.04l6.3-4.55,4.32,4.12c.44.26.54.77.44,1.29-.17.86-1.14,1.8-2.42,1.8h-13.19l-3.86,19.93c4.8-1.89,9.69-4.3,14.31-6.79.33-.17.66-.34.85-.34.59,0,.97.6.88,1.03-.22,1.12-9.99,6.87-16.78,9.88l-5.67,29.3ZM61.09,25.86l-.35,8.42c-.08,7.04.51,13.15,1.82,18.04l.15.77,6.76-6.96c3.06-3.61,5.51-7.13,7.51-10.31l1.22-2.75,4.79,1.72c.84.26,1.23.77,1.15,1.2-.07.34-.18.94-1.66.94l-1.33.26c-2.75,4.04-6.26,8.42-10.35,12.8l-6.97,6.53c4.61,12.8,13.56,16.41,15.13,16.41.31-.09,1.17-.95,2.17-2.58l4.04-7.13c.16-.34.49-.52.99-.52.89,0,1.06.6.98,1.03l-3.12,7.99c-.2.52-.3,1.03-.4,1.55-.2,1.03-.17,1.89.21,2.49.36.69.54,1.29.44,1.8-.15.77-.94,1.8-3.2,1.8-4.23,0-16.57-6.96-21.06-19.85l-3.01,2.32c-15.83,11.6-30.28,15.04-30.47,15.04-.69,0-.79-.52-.77-.6.05-.26.3-.52.71-.6,16.6-5.93,27.03-14.52,32.53-19.07-1.02-3.35-2.38-10.05-2.54-18.39l.15-11.94-20.64,2.41-1.19-2.49,22.14-2.49,2.03-17.61.68-4.55,5.76.77c1.54.17,2.11.77,1.98,1.46-.13.69-.82,1.2-1.84,1.38-1,.08-1.56.43-1.63.77-1.23,6.36-1.98,12.29-2.46,17.27l25.53-2.75,4.33-4.04,4.85,2.92c.52.34.83.77.73,1.29-.15.77-.89,1.54-2.29,1.63l-33.48,3.61Zm10.29-21.13c.03-.17.46-.86,1.05-.86,1.77,0,9.52,5.24,10.11,9.28-.53,2.75-.72,3.7-2.59,3.7-.79,0-2-.34-2.18-1.46-.99-5.07-3.8-8.85-6.03-10.05-.26-.17-.41-.43-.38-.6Z"/>
      <path class="cls-1" d="m107.84,72.17l-.96,4.98c-.28,1.46-3.53,1.98-4.32,1.98-.59,0-.93-.26-.83-.77l6.52-33.68,5.28.69c1.54.17,2.23.69,2.1,1.38-.13.69-.74,1.29-1.79,1.63s-1.56.95-1.68,1.55l-3.78,19.5h29.63l6.89-35.57h-25.49l-.53,2.75c-.28,1.46-3.42,1.89-4.21,1.89-.59,0-.93-.26-.83-.77l5.79-29.9,5.3.6c1.54.17,2.23.69,2.1,1.38s-.76,1.37-1.81,1.72c-1.03.26-1.64.86-1.76,1.46l-3.54,18.3h25.49l5.89-30.41,4.97.77c1.54.17,2.13.69,2,1.38-.13.69-.73,1.2-1.55,1.37-.82.17-1.31.69-1.43,1.29l-4.96,25.6h26.68l4.54-23.45,5.3.6c1.54.17,2.23.69,2.1,1.38s-.76,1.37-1.81,1.72c-1.03.26-1.64.86-1.76,1.46l-4.51,23.28c-.28,1.46-3.42,1.89-4.2,1.89-.69,0-.93-.26-.83-.77l.68-3.52h-26.68l-6.9,35.65h30.51l4.94-25.52,5.28.69c1.54.17,2.23.69,2.1,1.38-.13.69-.76,1.38-1.79,1.63-1.05.34-1.66.95-1.78,1.55l-5.41,27.92c-.3,1.55-3.34,1.98-4.22,1.98-.59,0-.93-.26-.83-.77l1.2-6.19h-65.07Z"/>
      <path class="cls-1" d="m277.59,31.27l7.18-4.55,5.4,4.12c.44.26.64.77.52,1.38-.23,1.2-1.5,1.63-2.58,1.63h-46.76l-5.39,27.84,8.21-1.72c.82-.17,1.34.17,1.21.86s-.61,1.12-1.45,1.37l-8.57,2.58-2.83,14.6c-.23,1.2-3.84,1.55-4.04,1.55-.79,0-1.08-.51-.88-1.55l2.58-13.32-8.03,1.8-20.73,3.87c-.41.09-.66.34-.74.77l-.07.86c-.18.94-.99,1.03-1.77,1.03-1.08,0-1.66-.6-1.82-1.8l-1.14-4.81,10.73-1.03,6.37-32.91h-10.63l-.29-2.58h75.5Zm-63.92,24.06l-2.08,10.74,7.19-1.03,12.1-2.49,1.4-7.22h-18.6Zm2.08-10.74l-1.58,8.16h18.6l1.58-8.16h-18.6Zm2.08-10.74l-1.58,8.16h18.6l1.58-8.16h-18.6Zm57.14-30.76l3.01-2.32,4.03,2.58c.36.17.49.52.44.77-.07.34-.63,1.2-1.76,1.46-.82.17-1.4.6-1.48,1.03l-3.98,20.53c0,.51-.59,1.03-1.23,1.29-3.19.69-4.01.86-3.59-1.29l.58-3.01h-45.87l-.63,3.27c-.08.43-.56.86-1.41,1.2-3.28.69-3.89.77-3.47-1.38l5.17-26.72,3.83,2.58h46.36Zm-48.1,12.03l-1.25,6.44h45.87l1.25-6.44h-45.87Zm1.83-9.45l-1.31,6.79h45.87l1.31-6.79h-45.87Zm46.15,35.65l3.3-1.8,3.31,2.75c.54.26.75.69.65,1.2-.07.34-.66,1.37-1.55,1.37-.71.09-1.26.43-1.46.95-3.51,5.93-8.86,12.2-15.67,18.38,2.82,2.23,7.19,5.58,18.27,7.82l.38.6c-.03.17-.87.43-2.27.52-1.39.08-2.73.86-3.55,2.06-.68.95-1.27,1.46-1.66,1.46-.2,0-9.56-3.01-14.8-9.45-10.13,8.08-19.47,11.6-19.77,11.6-.49,0-.88-.52-.8-.95.03-.17.17-.34.39-.51,6.92-3.7,12.97-7.99,18.26-12.46-4.22-5.67-6.6-12.2-6.97-20.96h-6.2l-.09-2.58h30.22Zm-21.96,2.58c1.01,6.96,3.2,12.97,8.22,18.04,5.58-5.41,10.19-11.43,13.53-18.04h-21.75Z"/>
      <path class="cls-1" d="m307.43,28.7l4.22,3.61h19.69l2.63-2.41,3.29,2.83c.7.43,1.08,1.03.95,1.72-.13.69-.74,1.29-1.58,1.55-.74.26-1.22.69-1.27.94l-7.37,38.06c-.47,2.41-2.77,4.12-9.97,5.24l-.42-2.41c-.24-.77-1.75-1.63-4.41-2.66-.66-.17-.79-.51-.69-1.03.18-.43.51-.6.9-.6.89,0,5.99.6,7.07.6s2.76,0,3.16-2.06l2.46-12.72h-19.69l-3.69,19.07c-.2,1.03-1.12,1.2-4.3,1.89-.69,0-.87-.6-.62-1.89l9.63-49.74Zm12.05-7.82c7.09-.51,13.56-1.37,19.23-2.23l.03-.17c-1.93-2.75-3.83-4.64-5.78-5.76-.26-.17-.41-.43-.38-.6.07-.34.46-.86.95-.86,2.17,0,13.02,8.5,13.84,14.95l-.45,2.32c-.48.94-1.53,1.29-2.32,1.29-.98,0-1.89-.43-2.1-1.38-.62-2.92-1.58-5.58-2.74-7.73-11.92,3.09-26.28,4.55-32.84,4.9-.49,0-.95.34-1.22,1.2-.36.86-.94,1.29-1.82,1.29s-1.48-.52-1.49-1.46l-.21-6.53,3.43.6,5.36.26c5.46-6.36,10.13-15.21,10.89-17.61l.7-2.58,5.69,1.12c1.13.26,1.52.77,1.41,1.37-.1.52-.68.95-1.48,1.03s-1.43.26-1.58.52c-1.88,3.09-4.25,6.19-6.72,9.28l-6.24,6.79h5.81Zm-10.67,26.12l-1.9,9.79h19.69l1.9-9.79h-19.69Zm2.35-12.11l-1.83,9.45h19.69l1.83-9.45h-19.69Zm38.29,5.07l6.3,1.55c.66.17.97.6.83,1.29-.13.69-.81,1.12-1.59,1.12-.9.08-1.48.51-1.59,1.12l-2.16,11.17c7.81-2.23,18.38-7.47,22.66-12.8l4.31,2.15c.8.43,1.1.95,1,1.46-.22,1.12-1.2,1.12-4.06,1.12-6.18,4.98-17.04,8.68-24.31,10.14l-2.73,14.09c-.18.95.19,1.03,1.57,1.55h20.47c3.25,0,5.09-1.89,6.54-4.81l2.56-5.58c.07-.34.51-.6,1.1-.6.49,0,.62.34.52.86l-1.39,5.67c-.5,2.06-.24,3.26.65,3.78.8.43,1.26,1.12,1.13,1.8-.28,1.46-1.56,1.98-3.91,2.92h-32.38c-2.08-.95-2.6-1.29-2.14-3.69l6.64-34.28Zm7.74-39.95l6.29,1.55c.66.17.97.6.83,1.29-.13.69-.81,1.12-1.61,1.2-.9.09-1.46.43-1.58,1.03l-1.91,9.88c6.57-1.89,14.76-5.58,20.8-10.83l1.07-1.46,4.19,2.23c.8.43,1.08,1.03,1,1.46-.23,1.2-1.41,1.2-4.07,1.2-6.21,4.64-15.97,7.73-23.35,9.28l-2.16,11.17c-.2,1.03.18,1.12,1.57,1.55h19c1.67,0,4.59-.34,6.39-5.07l2.31-5.84c.08-.43.53-.69,1.12-.69s.82.34.72.86l-1.38,6.1c-.4,2.06-.19,3.52.69,4.04.8.43,1.28,1.03,1.14,1.72-.32,1.63-1.69,2.15-3.91,2.92h-30.81c-2-.86-2.64-1.12-2.14-3.7l5.79-29.9Z"/>
      <path class="cls-1" d="m413.53,28.78c-7.17,8.08-15.53,14.61-16.61,14.61-.39,0-.71-.43-.64-.77.05-.26.2-.52.45-.77,18.04-15.89,28.08-34.19,30.15-41.32l5.43.95c1.15.17,1.66.6,1.54,1.2-.07.34-.43,1.2-1.51,1.2-.79,0-1.41.17-1.48.52-3.36,6.19-7.61,12.37-12.19,18.21,2.51.77,2.8.77,2.67,1.46-.07.34-.44.77-1.09,1.03-.76.34-1.23.77-1.28,1.03l-10.18,52.58c-.1.52-.58.95-1.38,1.03-3.28.69-3.89.77-3.54-1.03l9.67-49.92Zm43.2-.43l-.39,5.07c-.15,6.87-.06,20.62,6.4,29.98,5.12,7.13,9.98,8.93,10.87,8.93.53-.17,1.43-1.29,2.62-3.35l4.44-8.68c.18-.43.51-.6,1-.6.89,0,1.08.51.98,1.03l-3.82,9.54c-.23.69-.46,1.37-.58,1.98-.25,1.29-.14,2.23.32,2.92.38.6.46,1.2.36,1.72-.2,1.03-1.35,1.89-2.93,1.89-2.07,0-4.57-1.29-6.52-2.41-14.79-9.02-17.32-24.92-17.55-39l.27-8.5-25.42,3.18-1.29-2.49,26.93-3.35c.51-5.67,1.38-12.72,2.65-20.79l.88-4.55,5.74.86c1.34.17,2.02.77,1.88,1.46-.15.77-.94,1.29-1.92,1.29-.92.17-1.46.43-1.53.77-1.51,7.82-2.55,14.69-3.19,20.53l24.09-2.92,4.33-4.04,4.85,2.92c.52.34.75.69.65,1.2-.28,1.46-1.69,1.63-2.19,1.63l-31.94,3.78Zm12.35-23.63c.07-.34.46-.86.95-.86,2.17,0,12.34,6.44,11.5,10.74-.07.34-.63,2.23-2.7,2.23-1.58,0-1.97-1.03-2.01-1.29-1.4-4.98-4.77-8.94-7.27-10.22-.38-.09-.52-.34-.47-.6Z"/>
      <path class="cls-1" d="m537.91,35.65l2.03-10.48h-29.73l-.27-2.66h30.51l1.96-10.14h-33.96l-.29-2.58h34.75l1.8-9.28,4.97.77c1.54.17,2.13.69,2,1.37-.13.69-.73,1.2-1.55,1.38-.84.26-1.31.69-1.43,1.29l-.87,4.47h25l7.18-4.55,5.4,4.12c.44.26.64.77.52,1.37-.23,1.2-1.5,1.63-2.58,1.63h-36.03l-1.96,10.14h19.59l7.17-4.47,5.4,4.12c.46.17.65.69.54,1.29-.22,1.12-1.32,1.72-2.5,1.72h-30.71l-2.03,10.48h30.42l7.08-4.55,5.5,4.12c.44.26.64.77.54,1.29-.18.95-1.12,1.72-2.6,1.72h-39.18c.54,5.33,1.97,10.14,4,14.43l1.52,2.83c4.52-1.46,8.65-3.01,11.99-4.47,4.24-2.06,8.07-4.04,10.45-6.19l3.42,2.66c.44.26.65.69.59,1.03-.05.26-.5,1.03-1.38,1.03-.2,0-1.13-.26-1.42-.26-.1,0-.3,0-.41.09-4.9,2.41-14.75,6.01-22.25,7.65,8.75,11.77,20.62,15.04,27.99,16.58.34.77.49,1.03-2,1.2-1.4.09-2.63.86-3.43,1.98-.69,1.03-1.28,1.55-1.78,1.55h-.2c-6.8-2.49-12.45-5.84-16.46-10.05-6.04-6.44-11.44-14.61-12.68-30.07h-3.84c-3.14,4.04-7.73,7.9-13.53,11.43l-3.84,19.85c7.01-1.63,14.27-4.04,21.28-6.7.31-.09.53-.17.72-.17.69,0,.85.69.78,1.03-.07.34-.31.6-.74.77-17.69,8.51-34.76,11.77-39.42,12.46-.41.09-.81.6-1.17,1.46-.45,1.29-1.68,1.55-2.07,1.55-.59,0-1.06-.6-1.21-1.89l-.79-5.58h5.02c2.89-.17,7.06-.86,12.47-1.89l3.43-17.7c-9.27,4.64-18.38,7.99-27.11,9.88-.31.09-.62.17-.82.17s-.79,0-.62-.86c.07-.34.3-.51.64-.77,14.45-3.95,33.37-13.23,41.37-23.03h-35.44l-.29-2.58h40.56Z"/>
      <path class="cls-1" d="m610.18,25.95c-7.55,8.51-15.64,14.69-16.63,14.69-.29,0-.72-.34-.65-.69.05-.26.3-.52.54-.77,6.66-5.93,12.42-12.29,17.15-18.9,5.02-7.13,9.21-14,10.92-19.76l5.43.95c1.15.17,1.66.6,1.54,1.2-.07.34-.23,1.2-1.61,1.2-.79,0-1.31.17-1.38.52-3,5.33-6.61,10.74-10.64,15.81,2.88.86,3.26.95,3.14,1.55-.07.34-.43.69-1.17.95-.75.34-1.23.77-1.3,1.12l-10.57,54.55c-.1.52-.58.95-1.4,1.12-3.37.6-3.87.69-3.52-1.12l10.15-52.41Zm24.53,10.05l5.49,2.15c.72.34,1.11.86,1.03,1.29-.1.52-.81,1.12-1.79,1.12l-1.15.34c-6.84,12.46-19.84,27.23-21.32,27.23-.29,0-.94-.26-.82-.86.03-.17.05-.26.18-.43,8.92-10.48,14.29-19.93,17.2-27.32l1.17-3.52Zm13.99,37.03c-.4,2.06-2.59,5.76-10.47,7.3.65-3.35-4.38-4.81-7.73-5.84-.47-.09-.61-.43-.54-.77s.49-.52.99-.52c4.54.43,7.94.69,9.91.69s2.66,0,2.99-1.72l10.17-52.49h-17.92c-5.58,6.44-13.21,12.29-14.29,12.29-.39,0-.74-.26-.65-.69.05-.26.3-.52.56-.86,5.08-4.38,9.44-9.11,13.18-14.18,4.33-6.1,7.03-10.39,8.51-15.46l5.4,1.12c1.15.17,1.66.6,1.54,1.2-.12.6-.63,1.2-1.71,1.2-.79,0-1.31.17-1.35.34-2.52,4.38-5.7,8.59-9.03,12.54h41.24l3.42-2.92,3.03,3.69c.67.6,1.05,1.2.91,1.89-.28,1.46-1.46,1.46-3.04,1.46-.89,0-1.72.26-2.2.69l-10.15,9.71c-.23.17-.44.26-.64.26-.39,0-.92-.34-.82-.86l.05-.26c3.36-3.61,6.06-7.39,8.17-11.17h-19.19l-10.33,53.35Zm15.66-35.14c.12-.6.87-.95,1.27-.95.2,0,.48.09.62.34,7.96,12.29,10.49,23.11,9.75,26.89-.72,3.7-3.06,4.12-3.65,4.12-1.58,0-2.05-1.12-1.88-1.98.65-11-1.67-19.85-6.01-27.92-.07-.17-.13-.34-.1-.52Z"/>
      <path class="cls-1" d="m700.54,14.26l3.9,3.27h5.32l4.43-7.65,2.44-6.53.52-2.66,5.82.43c1.15.17,1.66.6,1.54,1.2-.12.6-.5,1.03-1.22,1.2l-1.51.69-4.91,7.56-4.46,5.76h12.9l2.9-2.75,4.03,2.58c.26.17.31.43.23.86-.22,1.12-1.38,1.55-1.69,1.63-.84.26-1.2.6-1.25.86l-9.75,50.34c-.08.43-.66.86-1.2,1.12-3.56.6-3.96.6-3.64-1.03l.98-5.07h-20.47l-1.55,7.99c-.22,1.12-1.45,1.37-4.32,1.98-.69,0-.85-.69-.6-1.98l11.58-59.8Zm-4.61,49.23h20.47l3.84-19.85h-20.47l-3.84,19.85Zm4.36-22.51h20.47l4.04-20.88h-20.47l-4.04,20.88Zm45.43,30.76c4.66,1.38,8.15,2.15,10.21,2.15,2.26,0,4.7-2.92,6.07-4.9,1.53-2.32,8.1-15.38,14.65-49.23h-29.73l-1.81,2.75c-6.67,9.54-14.23,16.07-15.12,16.07-.3,0-.64-.26-.56-.69.05-.26.2-.52.45-.77,12.03-12.8,19.56-27.83,21.21-36.34l5.64.34c1.26.09,1.77.52,1.64,1.2-.13.69-.73,1.2-1.42,1.2-.79,0-1.33.26-1.4.6-2.03,4.38-4.47,8.85-7.06,13.06h28.55l3.09-2.23,3.42,2.66c.43.34.54.77.46,1.2-.2.51-.77.94-1.4,1.12-1.13.26-1.22.69-1.93,4.38-4.46,23.02-10.67,40.38-14.3,45.88-4.55,6.7-8.24,8.5-14.35,9.02.17-3.44-2.69-4.9-7.25-5.76-.48-.09-.72-.34-.65-.69.08-.43.59-1.03,1.38-1.03h.2Zm-3.72-37.2c.05-.26.35-.77.94-.77,2.36,0,11.93,11.08,10.93,16.24-.15.77-.94,2.83-2.81,2.83s-2.1-1.38-2.13-1.72c-.52-6.96-2.98-13.06-6.65-15.98-.26-.17-.33-.34-.28-.6Z"/>
      <path class="cls-1" d="m866.31,56.45c.49.51.7.94.62,1.37-.12.6-1.15.86-1.54.86-.2,0-1.03-.26-1.23-.26s-.51.08-.72.17c-2.33,1.89-5.44,3.69-9.2,5.33l-7.5,2.66c8.34,4.72,19.63,6.87,25.39,7.65.39,0,.66.17.59.51-.05.26-.92.69-2.5,1.2-1.54.34-2.6,1.2-2.99,2.23-.36.86-.86,1.38-1.35,1.38-.2,0-5.05-1.38-12.93-4.9-4.9-2.15-16.73-7.65-21.14-21.99h-18.11l-3.36,17.35,1.21-.17,22.23-4.47c.82-.17,1.34.17,1.23.77-.13.69-.63,1.2-1.46,1.46-5.7,1.98-11.95,3.78-18.7,5.07l-17.92,3.61c-.41.09-.67.43-.77.95l-.07.86c-.15.77-.99,1.03-1.68,1.03-.98,0-1.66-.6-1.9-1.89l-1.05-4.72,13.79-1.55,8.8-45.45,3.5,2.75h37.8l3.11-2.32,4.03,2.58c.36.17.39.52.33.86-.13.69-.92,1.2-1.74,1.37-.82.17-1.4.6-1.38,1.03l-4.38,22.59c-.17.86-1.91,1.72-3.78,1.72-1.48,0-1.31-.86-.81-3.44h-16.73c1.42,3.35,3.98,8.42,10.91,12.8,2.64-.95,5.5-2.49,8.38-4.12,6.18-3.95,7.48-5.58,9.44-8.08l3.62,3.18Zm-73.91-24.49c-.3,0-.67-.09-.57-.6.07-.34.31-.6.63-.69,19.85-4.9,43.23-19.93,49.48-30.33l4.47,2.32c.8.43,1.11.86,1.01,1.38-.05.26-.17.34-1.05.86,10.33,13.75,28.15,19.33,37.02,21.31.38.09.52.34.46.69-.07.34-.76.86-1.81,1.2-1.07.43-1.99,1.12-2.5,1.72-.31.6-.79,1.03-1.08,1.03-.1,0-.08-.09-.18-.09-17.1-5.76-27.52-14.95-34.01-25.69-18.52,17.87-39.78,24.49-51.67,26.89h-.2Zm23.43,9.62l-1.65,8.51h37.01l1.65-8.51h-37.01Zm2.08-10.74l-1.58,8.16h37.01l1.58-8.16h-37.01Zm22.74-11.68l6.39-4.55,4.32,4.12c.44.26.54.77.44,1.29-.17.86-1.14,1.8-2.42,1.8h-21.36l-.27-2.66h12.89Z"/>
      <path class="cls-1" d="m903.62,78.87c-.27,1.37-3.52,1.89-4.21,1.89s-1.03-.26-.93-.77l6.06-31.27c-4.17,1.72-8,3.18-11.35,4.21-.43.17-.64.77-.81,1.63-.27,1.38-1.63,1.8-1.92,1.8-.59,0-1.06-.6-1.54-1.72l-1.96-5.16,4.97-.77c2.97-.6,7.45-1.89,13.35-3.87l4.46-23.02h-10.34c-2.48,5.67-8.19,14.35-9.67,14.35-.39,0-.7-.43-.62-.86.03-.17.05-.26.18-.43,6.46-11,9.96-23.97,10.14-24.92l.42-3.18,5.9,1.03c1.05.17,1.57.52,1.46,1.12-.15.77-.74,1.29-1.74,1.37-.79,0-1.35.34-1.41.69l-3.25,8.16h9.45l3.69-19.07,5.38.69c1.56.09,2.15.6,2.02,1.29s-.66,1.38-1.71,1.72c-1.05.34-1.64.86-1.76,1.46l-2.7,13.92h2.85l6.3-4.55,4.32,4.12c.44.26.54.77.44,1.29-.17.86-1.14,1.8-2.42,1.8h-12.01l-4.06,20.96c4.4-1.89,8.74-3.95,13.01-6.19.33-.17.54-.26.84-.26.59,0,.87.6.8.95-.18.94-9.16,6.1-15.33,9.02l-6.31,32.56Zm79.05-62.54c.43.34.54.77.44,1.29-.2.52-.77.95-1.5,1.12-.71.09-1.31.69-1.46,1.46-2.2,11.34-4.77,21.56-7.61,30.67-6.77,20.71-11.57,26.72-22.39,27.66.2-2.58-3.71-3.69-6.98-4.12-.49,0-.72-.34-.64-.77.2-1.03.89-1.03,1.28-1.03,3.44.52,6.25.77,8.32.77,2.46,0,4.53,0,8.17-5.07,2.34-3.44,9.31-19.59,15.36-49.83h-6.79c-5.51,12.71-12.43,23.54-20.43,32.3-13.66,14.61-29.33,21.31-30.11,21.31-.59,0-.49-.52-.47-.6.05-.26.3-.51.64-.77,19.64-11.94,34.46-25.95,45.26-52.24l-11.85.17c-3.78,8.33-8.62,15.55-14.27,21.31-9.16,9.19-19.97,13.66-20.76,13.66-.59,0-.49-.52-.47-.6.05-.26.3-.52.64-.77,13.54-7.9,23.1-17.61,29.87-33.76h-9.94c-7.82,9.88-16.32,16.15-17.3,16.15-.59,0-.69-.52-.64-.77.03-.17.17-.34.3-.51,12.07-9.97,20.1-23.46,22.21-29.81l.48-2.49,5.48.69c1.25.17,1.85.6,1.72,1.29-.13.69-.72,1.2-1.53,1.29-.72.17-1.25.34-1.3.6-1.7,3.18-4.19,6.87-7.23,10.91h37.01l3.09-2.23,3.4,2.75Z"/>
    </g>
  </g>
</svg>