<?xml version="1.0" encoding="UTF-8"?>
<svg id="_圖層_2" data-name="圖層 2" xmlns="http://www.w3.org/2000/svg" viewBox="0 0 896.32 215.52">
  <defs>
    <style>
      .cls-1 {
        stroke-width: 0px;
      }
    </style>
  </defs>
  <g id="_圖層_1-2" data-name="圖層 1">
    <g>
      <path class="cls-1" d="m133.1,168.07c7.01,3.75,14.91,6.73,23.7,8.94,14.45,3.61,30.64,5.67,48.56,6.18l-.13,2.54c-9.85,4.12-16.28,11.62-19.28,22.51-.47,1.84-1.4,2.76-2.79,2.76-1.69,0-4.6-.63-8.73-1.88-24.32-7.65-43.87-19.97-58.64-36.97-10.04,4.85-21.07,9.67-33.09,14.46-11.47,4.12-29.95,10.59-55.42,19.42-.47,3.38-.96,5.59-1.45,6.62-.84,1.91-1.95,2.87-3.35,2.87-1.54,0-2.72-1.54-3.51-4.64-2.4-8.9-4.69-18.61-6.86-29.13h3.64c5,0,12.39-.51,22.15-1.55l2.33-.33,5.44-103.62c-12.22,7.14-26.97,14.2-44.26,21.19l-1.4-2.76c12.97-8.75,24.15-17.18,33.55-25.27,11.56-10,23.29-21.89,35.2-35.64,9.4-10.96,15.8-19.38,19.2-25.27,1.21-2.06,2.65-4.89,4.31-8.5,14.37,3.75,24.85,6.58,31.44,8.5,2.9.88,4.31,2.06,4.23,3.53-.06,1.1-.95,1.95-2.67,2.54-.9.37-2.91.77-6.02,1.21,4.66,6.47,10.03,12.18,16.1,17.1,22.57,18.47,50.24,29.46,83.02,33l-.13,2.54c-3.69,1.69-6.54,3.42-8.55,5.19-3.79,3.53-6.97,8.68-9.53,15.45-.6,1.62-1.1,2.63-1.48,3.03-.39.41-.95.61-1.69.61-1.32,0-3.75-.81-7.27-2.43-6.97-3.16-14.36-7.39-22.18-12.69l-.41,7.83-.41,7.83-1.03,23.84-.3,5.74-.18,5.63c3.56,2.21,7.2,4.41,10.91,6.62,6.48,3.97,10.67,6.88,12.56,8.72.98.88,1.45,1.73,1.41,2.54-.09,1.69-1.35,2.54-3.78,2.54-1.84,0-4.11-.18-6.81-.55-16.64,8.68-32.1,15.27-46.39,19.75Zm17.27-104.17c-15.32-13.61-26.91-29.09-34.75-46.46-16.5,18.69-34.19,34.61-53.05,47.78,2.07,1.18,5.06,3.09,8.97,5.74h22.62l.66-12.58c.17-4.56,0-9.71-.51-15.45,13.98,1.32,23.78,2.47,29.39,3.42,2.91.52,4.33,1.58,4.25,3.2-.09,1.69-2.86,3.38-8.32,5.08l-.86,16.44h23.72c3.17-3.02,5.8-5.41,7.88-7.17Zm-54.82,70.96h-28.69l-2.21,42.15,3.44-.44c14.82-1.99,25.57-3.57,32.25-4.74,4.24-.81,8.59-1.69,13.05-2.65-8.45-10.08-14.39-21.52-17.84-34.32Zm46.39-30.24h-73.49l-1.34,25.49h73.49l1.34-25.49Zm-73.24-4.85h73.49l1.25-23.84h-73.49l-1.25,23.84Zm59.35,65.44c8.77-7.28,16.88-15.3,24.33-24.06-2.96.37-5.4.55-7.31.55-2.13,0-3.55-.44-4.24-1.32-.34-.51-.55-1.36-.64-2.54l.16-2.98h-40.94c4.64,11.11,14.19,21.23,28.64,30.35Z"/>
      <path class="cls-1" d="m409.73,50.54c-3.41,13.1-6.76,24.31-10.04,33.66-12,33.77-31.01,61.06-57.04,81.88-11.22,9.05-23.27,16.59-36.17,22.62-1.89.96-5.96,2.72-12.2,5.3l-1.31-2.32c30.47-21.33,53.5-46.53,69.07-75.59,11.58-21.55,20.04-43.4,25.4-65.55h-13.13c-1.61,5.37-2.84,9.23-3.7,11.59-5.52,15.52-14.08,30.64-25.66,45.35-9.14,11.55-19.83,21.78-32.07,30.68-4.05,2.94-10.03,6.84-17.94,11.7l-1.66-2.1c8.22-8.09,14.9-15.45,20.03-22.07,7.49-9.64,14.56-20.89,21.19-33.77,6.82-13.54,11.53-25.6,14.15-36.2.29-1.32.71-3.05,1.27-5.19h-7.61c-5.85,7.72-10.84,13.79-14.97,18.21-7.56,8.17-16.7,16.19-27.42,24.06l-1.57-1.66c7.69-10.67,14.07-20.78,19.14-30.35h-26.37l-2.4,45.69c11.58-3.46,21.5-6.69,29.75-9.71l.65,2.43c-5.35,3.9-10.58,7.36-15.66,10.37-2.58,1.55-7.71,4.52-15.37,8.94l-1.46,27.81c-.46,8.68-1.12,23.39-1.99,44.14l-.49,13.46c-.1,1.84-.64,3.09-1.63,3.75-2.06,1.47-7.33,2.21-15.79,2.21-4.49,0-7.03-.59-7.63-1.76-.27-.52-.37-1.4-.3-2.65l1.19-14.35c1.66-21.85,2.68-35.75,3.07-41.71l.94-17.99c-4.47,2.5-11.84,6.25-22.11,11.26-.43,4.05-.82,6.55-1.17,7.5-.68,1.69-1.61,2.54-2.78,2.54-1.32,0-2.43-1.36-3.32-4.08-2.61-7.72-5.38-17.25-8.32-28.58,4.95-.44,10.7-1.29,17.24-2.54,8.03-1.69,15.19-3.42,21.46-5.19l2.7-51.53h-13.79c-6.38,13.61-15.02,27.66-25.94,42.15l-2.47-1.21c5.1-13.17,8.94-25.31,11.51-36.42,1.71-7.36,3.42-16.74,5.12-28.14,1.09-6.77,1.7-11.37,1.83-13.79.07-1.25.09-3.16.08-5.74,9.82,2.21,18.35,4.38,25.59,6.51l.11-2.1c.37-9.86.46-17.1.26-21.74,7.76.74,17.6,1.84,29.51,3.31,3.51.44,5.22,1.51,5.13,3.2-.06,1.1-1.18,2.17-3.37,3.2-.98.52-3.53,1.36-7.64,2.54l-2.28,43.37h2.98c3.6-5.44,7.32-11.22,11.17-17.33,4.66,6.47,9.11,12.76,13.36,18.87l.21.22c5.33-10.45,9.86-21.08,13.59-31.89,3.65-10.59,5.88-18.83,6.7-24.72,13.07,3.24,23.26,6,30.57,8.28,2.97.96,4.41,2.13,4.34,3.53-.06,1.18-1.22,2.17-3.47,2.98-.9.29-3.28.81-7.14,1.55-5.36,9.64-11.34,19.05-17.92,28.25h64.22c4.13-4.34,8.28-8.57,12.47-12.69,6.22,4.86,11.75,9.6,16.58,14.24,1.82,1.69,2.71,3.05,2.65,4.08-.06,1.1-1,2.25-2.83,3.42-.46.29-2.16,1.21-5.11,2.76-2.81,32.44-5.46,57.02-7.95,73.71-3.92,27.07-8.84,46.57-14.77,58.49-2.89,5.89-6.94,10.33-12.18,13.35-4.7,2.57-11.22,4.19-19.57,4.86-1.85.15-3.25.22-4.21.22-1.4,0-2.34-.29-2.82-.88-.42-.44-.65-1.69-.69-3.75-.21-5.89-2.19-10.23-5.94-13.02-2.19-1.84-6.96-3.97-14.34-6.4-3.98-1.32-8.14-2.61-12.49-3.86l.37-2.76c21.52,2.06,35.63,3.09,42.32,3.09,2.79,0,4.84-.44,6.14-1.32,4.13-3.02,8.48-16.59,13.06-40.72,2.15-11.62,3.9-23.1,5.23-34.43.36-2.65,2.07-20.49,5.13-53.52h-1.32Zm-141.75,5.41l1.37-26.15c-1.04.22-2.23.44-3.57.66-3.41,10.3-6.61,18.8-9.61,25.49h11.81Z"/>
      <path class="cls-1" d="m531.22,50.76l4.42,4.08c.55.74.81,1.36.78,1.88-.05.88-.84,1.32-2.39,1.32h-27.81l-2.36,44.91c8.82-1.25,18.85-3.2,30.1-5.85l.96,2.65c-9.92,5.44-20.5,10.63-31.71,15.56l-1.16,22.18c-.18,3.53-.51,9.01-.97,16.44-.36,6.77-.62,11.77-.79,15.01-.19,3.68-.47,9.67-.83,17.99-.32,6.18-1.48,10.67-3.47,13.46-3.25,4.49-9.37,7.5-18.35,9.05-3.04.51-5.23.77-6.55.77-1.77,0-2.63-1.14-2.58-3.42-.09-3.83-.46-6.73-1.09-8.72-1.23-3.24-3.92-6-8.06-8.28-1.79-1.03-5.69-2.43-11.7-4.19l.16-2.98c7.91.59,16.17,1.03,24.76,1.32,1.33-.07,2.26-.33,2.8-.77.39-.44.62-1.29.69-2.54l2.87-54.62c-2.18.88-4.47,1.73-6.86,2.54-2.47.81-4.87,1.62-7.19,2.43-.71,3.75-1.19,5.92-1.45,6.51-.61,1.77-1.57,2.65-2.9,2.65-1.4,0-2.43-1.29-3.11-3.86-1.79-6.62-3.74-15.63-5.86-27.04,6.03-.07,15.51-1.18,28.42-3.31l2.51-47.89h-13.13c-3.31,0-7.12.44-11.44,1.32l-.68-8.06c3.91,1.18,8.03,1.8,12.37,1.88h13.13l1.13-21.52c.58-13.9.78-23.91.58-30.02,8.78.96,14.52,1.51,17.24,1.66,8.42.74,13.46,1.51,15.11,2.32,1.44.66,2.13,1.55,2.07,2.65-.07,1.25-1.08,2.39-3.05,3.42-1.06.52-3.49,1.36-7.31,2.54l-2.04,38.95h4.63c2.74-3.16,5.64-6.62,8.71-10.37l.48-.66c-.29-1.54-.39-3.02-.32-4.41.07-1.4.33-2.76.77-4.08.46-1.69,2.09-3.42,4.91-5.19,4.49-2.87,7.88-5.89,10.19-9.05,2.55-3.68,4.47-8.79,5.77-15.34l2.99-.22c.84,5.08,1.31,9.34,1.42,12.8h86.85c3.98-4.27,8.06-8.42,12.24-12.47,7.16,5.08,13.99,10.26,20.48,15.56,1.9,1.62,2.82,2.98,2.76,4.08-.08,1.47-1.24,2.54-3.48,3.2-1.19.29-4.04.63-8.55.99-9.55,8.17-19.62,15.6-30.19,22.29l-1.82-1.1c3.29-7.94,6.49-17.18,9.62-27.7h-17.21l-2.03,38.73c-.13,2.43.35,3.86,1.43,4.3,1.08.37,4.94.55,11.56.55s10.91-.51,12.88-1.54c1.74-.88,3.54-2.94,5.4-6.18,1.78-3.16,4.81-9.71,9.09-19.64l2.3.33-1.83,17.99c-.12.81-.19,1.58-.23,2.32-.09,1.69.11,2.83.59,3.42.34.44,1.82,1.14,4.42,2.1,3.17,1.18,4.67,3.53,4.48,7.06-.22,4.27-2.53,7.5-6.91,9.71-4,1.99-12.88,2.98-26.64,2.98-15.08,0-23.87-.15-26.35-.44-3.73-.37-6.4-1.36-8.01-2.98-1.75-1.77-2.77-3.94-3.08-6.51-.32-2.28-.41-4.89-.25-7.83l2.33-44.36h-12.8c-1.88,19.06-5.62,32.66-11.19,40.83-6.96,10.59-18.09,18.83-33.41,24.72-5.86,2.28-13.86,4.74-24,7.39l-.76-2.32c12.2-6.69,21.59-13.24,28.18-19.64,7.91-7.73,13.1-16.92,15.57-27.59,1.6-6.62,2.7-14.42,3.32-23.39h-14.79c-1.07,17.58-6,27.33-14.78,29.24Zm29.47,69.3h-29.13c-5.45.15-9.78.63-12.99,1.43l-.79-8.06c4.07,1.03,8.74,1.62,14.03,1.77h39.73l.6-11.48.05-.99c.21-2.65.28-8.79.2-18.43,14.28,1.32,23.42,2.25,27.44,2.76,3.14.44,4.67,1.51,4.58,3.2-.06,1.18-1,2.21-2.81,3.09-.91.44-2.93,1.1-6.06,1.99l-1.04,19.86h29.02c5.53-5.81,11.01-11.48,16.45-16.99,7.42,5.74,14.65,11.7,21.68,17.88.83.96,1.23,1.77,1.2,2.43-.05,1.03-.96,1.55-2.73,1.55h-62.35c4.25,7.43,9.92,14.12,17.04,20.08,14.33,11.55,31.43,18.61,51.3,21.19l-.14,2.65c-3.25,1.62-5.49,3.02-6.73,4.19-4.19,4.05-7.63,10.04-10.32,17.99-.62,1.91-1.51,2.87-2.69,2.87-1.54,0-4.17-1.25-7.86-3.75-7.75-5.22-14.06-10.41-18.94-15.56-9.05-9.71-16.72-23.47-22.99-41.27-.83-2.5-1.57-5.11-2.24-7.83l-.99,18.87c-1.28,27.15-2.18,48.55-2.71,64.22-.08,1.62-.48,2.76-1.17,3.42-1.85,1.62-6.93,2.43-15.25,2.43-3.38,0-5.58-.26-6.58-.77-1.08-.44-1.57-1.62-1.47-3.53.61-7.43,1.35-17.99,2.21-31.67l1.01-15.01.75-14.35c-10.21,10.89-20.65,19.94-31.33,27.15-9.91,6.62-21.9,12.88-35.97,18.76l-1.19-2.54c18-13.54,32.9-28.43,44.72-44.69,5.4-7.5,10.21-15.12,14.44-22.84Z"/>
      <path class="cls-1" d="m739.47,52.53h5.08c4.34-5.66,8.68-11.15,13-16.44,6.53,5.96,12.76,12.03,18.69,18.21.7.66,1.04,1.25,1.01,1.77-.05.88-.77,1.32-2.17,1.32h-35.97c-.07,1.32-.15,2.94-.25,4.86l-.39,7.5-.4,7.61c6.89,3.31,12.89,6.73,18,10.26,8.02,5.52,11.86,11.59,11.51,18.21-.25,4.78-2.25,9.2-5.99,13.24-2.5,2.72-5.18,4.08-8.05,4.08-1.62,0-2.79-.81-3.51-2.43-.39-1.03-.98-3.75-1.78-8.17-1.58-9.12-3.1-15.89-4.56-20.31-1.34-3.82-3.29-7.36-5.84-10.59l-1.38,26.26-1.92,36.53c-.95,18.1-1.86,37.63-2.74,58.6-.02.37-.03.62-.04.77-.11,2.06-.77,3.49-1.99,4.3-1.98,1.32-6.39,1.99-13.24,1.99-3.9,0-6.39-.18-7.47-.55-1.45-.44-2.1-1.95-1.97-4.53,1.45-16.48,3.35-42.85,5.7-79.12l1.12-17.21c-10.41,20.3-23.36,37.12-38.84,50.43l-2-1.88c11.22-17.51,21.25-38.44,30.11-62.79,4.32-12.21,7.91-24.57,10.77-37.08h-15.67c-5.15,0-9.55.48-13.21,1.43l-1.12-8.17c4.06,1.18,8.92,1.8,14.58,1.88h17.33l1.78-33.88c.25-6.1.26-11.99.04-17.66,13.17,1.4,22.85,2.61,29.05,3.64,3.5.59,5.21,1.73,5.12,3.42-.06,1.18-1.15,2.25-3.26,3.2-.91.44-3.27,1.25-7.08,2.43l-2.04,38.84Zm61.2,30.35c-.51,5.52-.85,9.12-1.01,10.81-2.18,30.31-8.29,54.29-18.34,71.95-6.64,11.55-15.96,22.4-27.97,32.55-3.08,2.57-7.99,6.36-14.72,11.37l-1.89-1.77c6.71-8.68,12.06-16.7,16.05-24.06,9.37-17.36,15.74-37,19.09-58.93,2.21-14.05,4.06-35.27,5.55-63.67.91-17.36,1.28-30.79,1.12-40.28,9.17,4.63,17.97,9.49,26.38,14.57,15.62-6.03,30.04-13.13,43.27-21.3,8.44-5.3,14.8-10,19.06-14.12,10.1,7.95,17.72,14.27,22.84,18.98,2.11,1.91,3.13,3.46,3.07,4.63-.04.81-.48,1.43-1.31,1.88-.61.37-1.28.55-2.01.55-1.77,0-4.86-.66-9.28-1.99-23.48,7.28-48.98,13.06-76.5,17.33-.44,6.92-1.09,15.08-1.95,24.5l-1.08,12.14h53.41c5.99-6.25,11.8-12.47,17.42-18.65,7.83,6.4,15.44,12.84,22.82,19.31,1.13.96,1.67,1.8,1.63,2.54-.06,1.1-1.15,1.66-3.29,1.66h-33.55l-3.06,58.38c-1.2,22.81-1.91,43.37-2.13,61.69-.12,2.21-.56,3.71-1.34,4.53-1.79,1.84-7.28,2.76-16.48,2.76-5.3,0-8.28-.66-8.94-1.99-.34-.59-.46-1.66-.38-3.2,1.79-24.28,3.18-45.17,4.17-62.68l3.12-59.48h-33.77Z"/>
    </g>
  </g>
</svg>